<svg width="486" height="562" viewBox="0 0 486 562" fill="none" xmlns="http://www.w3.org/2000/svg">
<path d="M91.1002 240.1L119.7 235.2C119.7 235.2 113 205.4 126.4 180.5C139.8 155.6 165.3 131.9 165.3 131.9C165.3 131.9 193.3 110 222.4 106.4C222.4 106.4 204.2 90.6 182.3 93.6C182.3 93.6 194.4 95.4 194.4 99.7C194.4 104 158.9 102.1 144.7 112.5C130.6 122.8 104.5 135 97.7002 130.1C97.7002 130.1 131.1 145.9 139.6 138C148.1 130.1 106.8 158.3 100.1 166.7C93.4002 175.1 86.7002 201.8 86.7002 201.8C86.7002 201.8 100.1 185.4 103.7 190.9C107.5 196.3 93.5002 205.5 91.1002 240.1Z" fill="#741F12"/>
<path d="M305.6 247.4L327.2 242.2C327.2 242.2 316.6 216.7 287.7 212.1C258.8 207.5 237.9 218.5 237.9 218.5C237.9 218.5 206.9 228.2 196 208.2C185.1 188.1 198.1 180.9 198.1 180.9C198.1 180.9 201.5 178.5 203 186.1C204.5 193.7 212.4 198.6 212.4 198.6C212.4 198.6 204.5 186.7 210.3 177.6C216.1 168.5 219.7 161.2 232.2 157.5C244.7 153.9 259.8 155.1 259.8 155.1L264.4 149C264.4 149 232.8 147.8 215.5 156.9C199.4 165.4 191.5 168.8 176.6 189.1C161.7 209.4 168.4 237.7 168.4 237.7C168.4 237.7 206.6 258.8 245.6 235.3C284.4 211.7 305.6 247.4 305.6 247.4Z" fill="#741F12"/>
<path d="M379.1 136.2C368.8 138.6 345.1 125.9 345.1 125.9C352.4 109.5 328.7 104 328.7 104C328.7 104 326.9 101 301.4 96.7C275.9 92.4 256.4 64.5 256.4 64.5C254 77.9 263.7 87.6 263.7 87.6C238.8 87 214.5 54.2 214.5 54.2C202 99.4 252.4 117.2 254.5 118C252.6 117.3 222.7 107.5 196.9 120.5C170.2 133.9 168.9 140.6 144.8 164.8C120.6 189.1 123.4 232.3 123.4 232.3L158.6 235.3C158.6 235.3 149.9 208 178.7 172.1C210.3 132.6 275.9 147.8 275.9 147.8C256.5 150.2 247.9 184.3 247.9 184.3C247.9 184.3 280.1 173.4 299.5 176.4C318.9 179.4 339 209.2 339 209.2C363.3 206.8 363.3 176.4 363.3 176.4C363.3 176.4 351.7 197.7 340.8 182.5C329.9 167.3 310.4 161.2 310.4 161.2C367.5 139.9 390.6 178.8 390.6 178.8C390.6 178.8 392.4 166 395.5 153.3C398.6 140.4 389.4 133.8 379.1 136.2ZM322 130.7C312.3 128.9 308 113.7 308 113.7C326.9 113.1 332.3 124.3 332.3 124.3C332.3 124.3 331.7 132.5 322 130.7ZM383 154.3C380.4 154.3 378.2 152.2 378.2 149.5C378.2 146.8 380.3 144.7 383 144.7C385.6 144.7 387.8 146.8 387.8 149.5C387.8 152.2 385.6 154.3 383 154.3Z" fill="#CEA143"/>
<path d="M484.6 66.5L282.9 4.89999C268.5 0.799986 237.2 -1.20001 222.5 1.49999C172.4 10.4 53.2999 34.1 0.899902 65.7L4.8999 297.4L31.5999 261.7V92.5L213.5 37.7C228.1 33.3 243.6 33.1 258.2 37.2L453.7 91.7V292.6C453.7 292.6 450.5 325 446.4 335.6C442.4 346.1 450.4 269.2 371.1 257.8C291.7 246.5 243.9 328.8 243.9 328.8C243.9 328.8 200.1 261.9 132.9 256.2C65.6999 250.5 39.6999 317.8 39.6999 317.8C39.6999 317.8 23.4999 370.5 48.5999 415C69.9999 452.9 194.5 534.8 231.2 558.4C237.6 562.5 245.6 562.9 252.3 559.5C280.4 545.3 355 505.9 385.6 473.4L330.5 475C330.5 475 299.6 503.7 267.1 519.1C254.7 524.9 240.3 524.4 228.2 518C199.5 502.8 143.1 470.7 122.3 443.4C122.3 443.4 188.7 455.5 243 381C243 381 299.7 462 371 451.5C442.3 441 467.4 361.6 467.4 361.6C467.4 361.6 482 345.4 484.4 265.2C487 184.8 484.6 66.5 484.6 66.5ZM150.5 416.9C107.5 416.9 72.5999 387.6 72.5999 351.4C72.5999 315.2 107.5 285.9 150.5 285.9C193.5 285.9 228.4 351.4 228.4 351.4C228.4 351.4 193.5 416.9 150.5 416.9ZM336.4 416.9C293.4 416.9 258.5 351.4 258.5 351.4C258.5 351.4 293.4 285.9 336.4 285.9C379.4 285.9 414.3 315.2 414.3 351.4C414.3 387.6 379.4 416.9 336.4 416.9Z" fill="#CEA143"/>
<path d="M141.2 286.4C141.2 286.4 100.5 279.6 72.5 312.1C44.5 344.6 62.5 394.4 81.6 412.7C81.6 412.7 71.2 372.8 73 358.9C75.8 338 77.6 326.4 94 308.5C99.6 302.4 106.4 297.6 114 294.4C121.3 291.3 131.1 287.8 141.2 286.4Z" fill="#741F12"/>
<path d="M345.1 286.4C345.1 286.4 378.7 285.2 402.2 301.5C447.4 332.9 431.1 387.8 401 407.2C370.9 426.6 329 424.4 309 408.5C309 408.5 353.3 429 396.1 393.5C396.1 393.5 412.1 378.4 414.3 349C416.5 319.7 379.1 291 345.1 286.4Z" fill="#741F12"/>
</svg>
