<svg width="460" height="308" viewBox="0 0 460 308" fill="none" xmlns="http://www.w3.org/2000/svg">
<path d="M169.946 93.4641L181.083 91.5635C181.083 91.5635 178.48 79.9546 183.685 70.2462C188.891 60.5377 198.841 51.3014 198.841 51.3014C198.841 51.3014 209.736 42.7793 221.103 41.3509C221.103 41.3509 213.997 35.1893 205.475 36.3756C205.475 36.3756 210.208 37.0899 210.208 38.7483C210.208 40.4067 196.36 39.6925 190.852 43.7235C185.344 47.7546 175.163 52.4878 172.549 50.5872C172.549 50.5872 185.574 56.7488 188.891 53.6619C192.208 50.5751 176.096 61.5667 173.493 64.8351C170.89 68.1035 168.288 78.5262 168.288 78.5262C168.288 78.5262 173.493 72.1346 174.921 74.2651C176.338 76.4078 170.89 79.9667 169.946 93.4641Z" fill="#741F12"/>
<path d="M253.557 96.3088L261.97 94.2993C261.97 94.2993 257.83 84.3488 246.572 82.5814C235.326 80.8019 227.155 85.063 227.155 85.063C227.155 85.063 215.074 88.8519 210.813 81.0319C206.552 73.2119 211.636 70.3793 211.636 70.3793C211.636 70.3793 212.944 69.4351 213.537 72.3888C214.13 75.3546 217.205 77.243 217.205 77.243C217.205 77.243 214.13 72.6188 216.382 69.0719C218.633 65.5251 220.049 62.6804 224.904 61.252C229.758 59.8235 235.665 60.3077 235.665 60.3077L237.457 57.9351C237.457 57.9351 225.134 57.4509 218.391 61.0098C212.12 64.3267 209.034 65.634 203.235 73.563C197.437 81.4919 200.039 92.5077 200.039 92.5077C200.039 92.5077 214.941 100.739 230.121 91.5635C245.289 82.3877 253.557 96.3088 253.557 96.3088Z" fill="#741F12"/>
<path d="M282.21 52.9599C278.179 53.9041 268.942 48.9288 268.942 48.9288C271.787 42.5372 262.551 40.4067 262.551 40.4067C262.551 40.4067 261.837 39.2204 251.898 37.562C241.948 35.9036 234.37 25.0088 234.37 25.0088C233.425 30.2141 237.214 34.003 237.214 34.003C227.506 33.7609 218.028 20.9778 218.028 20.9778C213.161 38.5909 232.784 45.5393 233.619 45.8299C232.869 45.5756 221.235 41.7504 211.164 46.7862C200.741 51.9914 200.269 54.6062 190.851 64.0725C181.433 73.5388 182.499 90.3651 182.499 90.3651L196.238 91.5515C196.238 91.5515 192.849 80.923 204.058 66.9172C216.369 51.5193 241.948 57.4388 241.948 57.4388C234.37 58.383 231.053 71.6504 231.053 71.6504C231.053 71.6504 243.606 67.3893 251.184 68.5757C258.762 69.762 266.582 81.3709 266.582 81.3709C276.06 80.4267 276.06 68.5757 276.06 68.5757C276.06 68.5757 271.557 76.8678 267.296 70.9483C263.035 65.0288 255.457 62.6562 255.457 62.6562C277.719 54.3641 286.725 69.5199 286.725 69.5199C286.725 69.5199 287.439 64.5446 288.625 59.5693C289.812 54.5941 286.241 52.0157 282.21 52.9599ZM259.948 50.8293C256.159 50.1151 254.501 44.1957 254.501 44.1957C261.849 43.9536 263.979 48.3357 263.979 48.3357C263.979 48.3357 263.737 51.5435 259.948 50.8293ZM283.723 60.0051C282.694 60.0051 281.859 59.1699 281.859 58.1409C281.859 57.112 282.694 56.2767 283.723 56.2767C284.752 56.2767 285.587 57.112 285.587 58.1409C285.587 59.1699 284.752 60.0051 283.723 60.0051Z" fill="#CEA143"/>
<path d="M323.344 25.8077L244.708 1.80299C239.103 0.192991 226.913 -0.557543 221.175 0.471405C201.662 3.94561 155.226 13.1819 134.804 25.493L136.378 115.81L146.801 101.914V35.9156L217.689 14.5378C223.366 12.8309 229.407 12.7582 235.121 14.3561L311.323 35.6009V113.922C311.323 113.922 310.064 126.548 308.478 130.664C306.905 134.767 310.052 104.77 279.111 100.352C248.158 95.9335 229.528 128.025 229.528 128.025C229.528 128.025 212.472 101.938 186.264 99.7225C160.056 97.5072 149.948 123.727 149.948 123.727C149.948 123.727 143.629 144.258 153.422 161.617C161.751 176.385 210.281 208.295 224.601 217.507C227.083 219.105 230.206 219.262 232.833 217.93C243.776 212.398 272.853 197.049 284.788 184.362L263.314 184.992C263.314 184.992 251.281 196.189 238.595 202.169C233.765 204.445 228.136 204.251 223.415 201.758C212.229 195.826 190.246 183.321 182.148 172.693C182.148 172.693 208.041 177.426 229.201 148.374C229.201 148.374 251.305 179.956 279.099 175.852C306.893 171.749 316.674 140.796 316.674 140.796C316.674 140.796 322.363 134.477 323.307 103.221C324.288 71.9167 323.344 25.8077 323.344 25.8077ZM193.103 162.379C176.325 162.379 162.731 150.952 162.731 136.861C162.731 122.771 176.325 111.344 193.103 111.344C209.881 111.344 223.475 136.861 223.475 136.861C223.475 136.861 209.869 162.379 193.103 162.379ZM265.577 162.379C248.799 162.379 235.205 136.861 235.205 136.861C235.205 136.861 248.799 111.344 265.577 111.344C282.355 111.344 295.949 122.771 295.949 136.861C295.949 150.952 282.343 162.379 265.577 162.379Z" fill="#CEA143"/>
<path d="M189.496 111.525C189.496 111.525 173.626 108.862 162.731 121.536C151.836 134.21 158.821 153.627 166.278 160.733C166.278 160.733 162.211 145.178 162.925 139.779C164.002 131.62 164.704 127.105 171.096 120.12C173.275 117.747 175.938 115.859 178.904 114.612C181.724 113.414 185.549 112.07 189.496 111.525Z" fill="#741F12"/>
<path d="M268.955 111.501C268.955 111.501 282.04 111.017 291.216 117.384C308.841 129.622 302.462 151.013 290.744 158.59C279.026 166.168 262.66 165.309 254.9 159.111C254.9 159.111 272.15 167.112 288.844 153.264C288.844 153.264 295.078 147.369 295.937 135.929C296.785 124.502 282.222 113.317 268.955 111.501Z" fill="#741F12"/>
<path d="M31.3948 280.648V278.848L39.6748 278.128H41.2948L49.8748 278.848V280.648H31.3948ZM37.5148 280.648C37.5948 277.288 37.6348 273.928 37.6348 270.568C37.6348 267.208 37.6348 263.828 37.6348 260.428V257.188C37.6348 253.788 37.6348 250.408 37.6348 247.048C37.6348 243.648 37.5948 240.288 37.5148 236.968H43.0948C43.0548 240.288 43.0148 243.648 42.9748 247.048C42.9748 250.408 42.9748 253.788 42.9748 257.188V261.388C42.9748 264.348 42.9748 267.468 42.9748 270.748C43.0148 273.988 43.0548 277.288 43.0948 280.648H37.5148ZM40.3348 262.768V260.788H46.4548C49.4948 260.788 51.9548 260.328 53.8348 259.408C55.7548 258.448 57.1348 257.128 57.9748 255.448C58.8548 253.768 59.2948 251.828 59.2948 249.628C59.2948 246.148 58.3748 243.508 56.5348 241.708C54.6948 239.868 51.8348 238.948 47.9548 238.948H40.3348V236.968H48.3748C53.8548 236.968 57.8948 238.108 60.4948 240.388C63.1348 242.668 64.4548 245.768 64.4548 249.688C64.4548 252.128 63.8348 254.348 62.5948 256.348C61.3948 258.308 59.4748 259.868 56.8348 261.028C54.1948 262.188 50.7748 262.768 46.5748 262.768H40.3348ZM31.3948 238.768V236.968H40.3348V239.428H39.6748L31.3948 238.768ZM65.9778 280.648V278.848L71.8578 278.188H72.8778L79.4178 278.848V280.648H65.9778ZM70.2978 280.648L84.9378 236.608H88.2978L103.178 280.648H97.7778L84.5778 240.148H85.7778L85.5378 240.988L72.8178 280.648H70.2978ZM76.7778 265.708L77.0178 263.788H95.2578L95.4978 265.708H76.7778ZM90.3378 280.648V278.848L98.3778 278.188H100.118L107.918 278.848V280.648H90.3378ZM113.847 280.648V278.848L120.207 278.128H121.527L129.267 278.848V280.648H113.847ZM119.607 280.648V238.348H121.767L121.947 261.508V280.648H119.607ZM141.267 238.768V236.968H156.567V238.768L150.267 239.428H149.067L141.267 238.768ZM148.167 281.068L121.227 241.408L121.107 241.348L119.667 239.128L113.787 238.768V236.968H124.347L149.667 274.468L148.647 274.828L148.527 256.948V236.968H150.747V281.068H148.167ZM172.161 280.648V278.848L180.981 278.128H182.481L191.361 278.848V280.648H172.161ZM178.941 280.648C179.021 277.288 179.061 273.928 179.061 270.568C179.101 267.208 179.121 263.828 179.121 260.428V257.188C179.121 253.788 179.101 250.408 179.061 247.048C179.061 243.648 179.021 240.288 178.941 236.968H184.521C184.481 240.288 184.441 243.648 184.401 247.048C184.401 250.408 184.401 253.788 184.401 257.188V260.428C184.401 263.828 184.401 267.208 184.401 270.568C184.441 273.928 184.481 277.288 184.521 280.648H178.941ZM163.281 248.368L163.761 236.968H199.701L200.241 248.368H197.661L195.501 236.968L197.961 239.068H165.501L168.021 236.968L165.861 248.368H163.281ZM207.692 280.648V278.848L215.972 278.128H217.292L225.632 278.848V280.648H207.692ZM213.812 280.648C213.892 277.288 213.932 273.928 213.932 270.568C213.932 267.208 213.932 263.828 213.932 260.428V257.188C213.932 253.788 213.932 250.408 213.932 247.048C213.932 243.648 213.892 240.288 213.812 236.968H219.392C219.312 240.288 219.252 243.688 219.212 247.168C219.212 250.648 219.212 254.488 219.212 258.688V259.888C219.212 263.528 219.212 267.068 219.212 270.508C219.252 273.908 219.312 277.288 219.392 280.648H213.812ZM241.352 281.188C239.352 281.188 237.872 280.888 236.912 280.288C235.992 279.648 235.372 278.628 235.052 277.228L232.052 266.968C231.612 265.288 231.092 263.968 230.492 263.008C229.892 262.008 229.072 261.288 228.032 260.848C226.992 260.408 225.572 260.188 223.772 260.188H216.692V258.268H225.392C227.632 258.268 229.532 257.828 231.092 256.948C232.692 256.068 233.912 254.868 234.752 253.348C235.592 251.828 236.012 250.148 236.012 248.308C236.012 245.388 235.132 243.108 233.372 241.468C231.612 239.788 228.912 238.948 225.272 238.948H216.632V236.968H226.052C230.852 236.968 234.552 237.948 237.152 239.908C239.792 241.828 241.112 244.608 241.112 248.248C241.112 250.208 240.592 252.028 239.552 253.708C238.552 255.348 237.032 256.708 234.992 257.788C232.992 258.868 230.472 259.508 227.432 259.708V259.108C229.592 259.268 231.292 259.668 232.532 260.308C233.812 260.908 234.792 261.788 235.472 262.948C236.192 264.068 236.812 265.508 237.332 267.268L241.052 279.568L238.592 278.308L246.512 278.848V280.648C245.832 280.808 245.072 280.928 244.232 281.008C243.432 281.128 242.472 281.188 241.352 281.188ZM207.692 238.768V236.968H216.632V239.428H215.972L207.692 238.768ZM272.269 281.608C269.629 281.608 267.109 281.108 264.709 280.108C262.349 279.068 260.269 277.568 258.469 275.608C256.669 273.648 255.249 271.268 254.209 268.468C253.169 265.628 252.649 262.408 252.649 258.808C252.649 255.248 253.169 252.068 254.209 249.268C255.249 246.428 256.669 244.028 258.469 242.068C260.269 240.068 262.349 238.548 264.709 237.508C267.109 236.468 269.629 235.948 272.269 235.948C274.949 235.948 277.469 236.468 279.829 237.508C282.189 238.508 284.269 239.988 286.069 241.948C287.909 243.908 289.329 246.308 290.329 249.148C291.369 251.988 291.889 255.208 291.889 258.808C291.889 262.368 291.369 265.568 290.329 268.408C289.329 271.208 287.909 273.588 286.069 275.548C284.269 277.508 282.189 279.008 279.829 280.048C277.469 281.088 274.949 281.608 272.269 281.608ZM272.269 279.568C274.549 279.568 276.549 279.028 278.269 277.948C280.029 276.828 281.489 275.328 282.649 273.448C283.809 271.528 284.689 269.328 285.289 266.848C285.889 264.328 286.189 261.648 286.189 258.808C286.189 256.008 285.889 253.368 285.289 250.888C284.689 248.368 283.809 246.148 282.649 244.228C281.489 242.308 280.029 240.808 278.269 239.728C276.549 238.648 274.549 238.108 272.269 238.108C269.989 238.108 267.969 238.648 266.209 239.728C264.489 240.808 263.029 242.308 261.829 244.228C260.669 246.148 259.789 248.368 259.189 250.888C258.629 253.368 258.349 256.008 258.349 258.808C258.349 261.648 258.629 264.328 259.189 266.848C259.789 269.328 260.669 271.528 261.829 273.448C263.029 275.328 264.489 276.828 266.209 277.948C267.969 279.028 269.989 279.568 272.269 279.568ZM300.339 280.648V278.848L306.699 278.128H308.019L315.759 278.848V280.648H300.339ZM306.099 280.648V238.348H308.259L308.439 261.508V280.648H306.099ZM327.759 238.768V236.968H343.059V238.768L336.759 239.428H335.559L327.759 238.768ZM334.659 281.068L307.719 241.408L307.599 241.348L306.159 239.128L300.279 238.768V236.968H310.839L336.159 274.468L335.139 274.828L335.019 256.948V236.968H337.239V281.068H334.659ZM371.927 281.608C368.847 281.608 366.127 281.028 363.767 279.868C361.447 278.708 359.627 276.848 358.307 274.288C357.027 271.688 356.387 268.288 356.387 264.088V257.188C356.387 253.788 356.387 250.408 356.387 247.048C356.387 243.648 356.347 240.288 356.267 236.968H361.787C361.747 240.288 361.707 243.628 361.667 246.988C361.667 250.348 361.667 253.748 361.667 257.188V263.188C361.667 266.868 362.127 269.828 363.047 272.068C363.967 274.308 365.287 275.928 367.007 276.928C368.727 277.888 370.747 278.368 373.067 278.368C377.147 278.368 380.167 277.128 382.127 274.648C384.127 272.128 385.107 268.008 385.067 262.288L385.007 236.968H387.407L387.287 263.488C387.287 269.608 385.967 274.168 383.327 277.168C380.727 280.128 376.927 281.608 371.927 281.608ZM350.567 238.768V236.968H368.327V238.768L359.927 239.428H358.667L350.567 238.768ZM377.747 238.768V236.968H393.227V238.768L386.687 239.428H385.427L377.747 238.768ZM413.582 281.608C411.102 281.608 408.742 281.268 406.502 280.588C404.262 279.908 402.402 279.088 400.922 278.128L401.282 269.188H403.742L405.602 279.028L402.902 277.768L402.542 275.788C404.502 277.228 406.242 278.208 407.762 278.728C409.282 279.208 411.102 279.448 413.222 279.448C416.462 279.448 419.082 278.728 421.082 277.288C423.082 275.808 424.082 273.628 424.082 270.748C424.082 269.268 423.802 268.008 423.242 266.968C422.722 265.888 421.842 264.908 420.602 264.028C419.362 263.108 417.642 262.208 415.442 261.328L412.862 260.308C409.302 258.788 406.602 257.028 404.762 255.028C402.922 252.988 402.002 250.448 402.002 247.408C402.002 244.888 402.622 242.788 403.862 241.108C405.142 239.388 406.822 238.108 408.902 237.268C411.022 236.388 413.382 235.948 415.982 235.948C418.262 235.948 420.262 236.248 421.982 236.848C423.702 237.408 425.302 238.208 426.782 239.248L426.542 247.768H423.962L422.102 238.288L424.922 239.608L425.102 241.528C423.542 240.288 422.102 239.428 420.782 238.948C419.502 238.428 418.002 238.168 416.282 238.168C413.482 238.168 411.162 238.848 409.322 240.208C407.522 241.528 406.622 243.488 406.622 246.088C406.622 248.368 407.282 250.188 408.602 251.548C409.962 252.908 411.822 254.088 414.182 255.088L416.882 256.168C419.922 257.448 422.302 258.728 424.022 260.008C425.782 261.248 427.022 262.628 427.742 264.148C428.462 265.628 428.822 267.388 428.822 269.428C428.822 271.908 428.182 274.068 426.902 275.908C425.662 277.748 423.902 279.168 421.622 280.168C419.342 281.128 416.662 281.608 413.582 281.608Z" fill="#CEA143"/>
</svg>
